<svg id="Component_10_1" data-name="Component 10 – 1" xmlns="http://www.w3.org/2000/svg" width="24" height="24" viewBox="0 0 24 24">
  <rect id="Rectangle_56" data-name="Rectangle 56" width="24" height="24" fill="rgba(255,255,255,0)"/>
  <path id="Plus" d="M16.359,2H7.641C4.256,2,2,4.42,2,7.893v8.214C2,19.583,4.25,22,7.641,22h8.718C19.75,22,22,19.583,22,16.107V7.893C22,4.417,19.75,2,16.359,2ZM7.641,3.4h8.718c2.6,0,4.246,1.771,4.246,4.5v8.214c0,2.727-1.648,4.5-4.246,4.5H7.641c-2.6,0-4.246-1.771-4.246-4.5V7.893C3.4,5.169,5.049,3.4,7.641,3.4ZM12,7.886a.7.7,0,0,1,.691.6l.006.095v2.71h2.713a.7.7,0,0,1,.095,1.389l-.095.006H12.7V15.4a.7.7,0,0,1-1.389.095L11.3,15.4v-2.71H8.589A.7.7,0,0,1,8.494,11.3l.095-.006H11.3V8.584A.7.7,0,0,1,12,7.886Z" fill="#111" fill-rule="evenodd"/>
</svg>
