<svg id="Component_1_2" data-name="Component 1 – 2" xmlns="http://www.w3.org/2000/svg" width="24" height="24" viewBox="0 0 24 24">
  <rect id="Rectangle_21" data-name="Rectangle 21" width="24" height="24" fill="rgba(255,255,255,0)"/>
  <path id="Activity" d="M16.821,4.581a2.589,2.589,0,1,1,2.589,2.581A2.585,2.585,0,0,1,16.821,4.581Zm3.725,0a1.136,1.136,0,1,0-1.136,1.132A1.134,1.134,0,0,0,20.546,4.581ZM15.528,9.54a.726.726,0,0,1,1.209.8l-.06.089L13.838,14.08a.728.728,0,0,1-.934.186l-.09-.06-2.731-2.139L7.631,15.245a.728.728,0,0,1-.929.192l-.09-.059a.723.723,0,0,1-.192-.926l.059-.09L9.38,10.6a.728.728,0,0,1,.935-.188l.09.06,2.732,2.14Zm-.3-6a.726.726,0,0,0-.727-.725H7.454l-.227,0C4.075,2.923,2,5.231,2,8.507v7.808l0,.233A5.243,5.243,0,0,0,7.454,22h8.338l.227,0c3.153-.105,5.227-2.406,5.227-5.681v-6.8l-.007-.1a.727.727,0,0,0-1.447.1v6.8l0,.225a3.817,3.817,0,0,1-4,4.011H7.454l-.216,0c-2.347-.093-3.785-1.718-3.785-4.232V8.507l0-.225a3.824,3.824,0,0,1,4-4.02H14.5l.1-.007A.725.725,0,0,0,15.224,3.538Z" fill="#fff" fill-rule="evenodd"/>
</svg>
