<svg id="Component_3_2" data-name="Component 3 – 2" xmlns="http://www.w3.org/2000/svg" width="24" height="24" viewBox="0 0 24 24">
  <rect id="Rectangle_24" data-name="Rectangle 24" width="24" height="24" fill="rgba(255,255,255,0)"/>
  <path id="Discovery" d="M12,2A10,10,0,1,0,22,12,10,10,0,0,0,12,2Zm0,1.448A8.552,8.552,0,1,1,3.448,12,8.552,8.552,0,0,1,12,3.448Zm3.008,4.637L10.1,9.622a.724.724,0,0,0-.475.475L8.085,15.008a.724.724,0,0,0,.907.907L13.9,14.378a.724.724,0,0,0,.475-.475l1.537-4.912A.724.724,0,0,0,15.008,8.085ZM14.12,9.879l-1.011,3.23L9.879,14.12l1.012-3.23Z" fill="#fff" fill-rule="evenodd"/>
</svg>
