<svg id="Component_8_2" data-name="Component 8 – 2" xmlns="http://www.w3.org/2000/svg" width="24" height="24" viewBox="0 0 24 24">
  <rect id="Rectangle_28" data-name="Rectangle 28" width="24" height="24" fill="rgba(255,255,255,0)"/>
  <path id="Star" d="M5.421,20.7a1.516,1.516,0,0,0,1.339.8,1.5,1.5,0,0,0,.68-.16l4.552-2.38a.07.07,0,0,1,.04-.01l4.521,2.36a1.489,1.489,0,0,0,.712.178,1.707,1.707,0,0,0,.237-.018,1.51,1.51,0,0,0,1.25-1.71l-.88-5.01a.06.06,0,0,0-.007-.008,0,0,0,0,1,0,0s.007-.01.007-.01l3.67-3.55a1.494,1.494,0,0,0,.16-1.97,1.538,1.538,0,0,0-1-.58L15.64,7.9c-.009,0-.019-.01-.029-.02L13.35,3.34a1.513,1.513,0,0,0-2.71,0L8.382,7.867c0,.021-.021.03-.041.03l-5.05.73a1.647,1.647,0,0,0-.83.4A1.54,1.54,0,0,0,2,10.127a1.461,1.461,0,0,0,.44,1.043l3.7,3.56a.041.041,0,0,1,.011.03L5.26,19.75A1.492,1.492,0,0,0,5.421,20.7Zm6.55-16.733.01-.007H12l.009.009a.035.035,0,0,1,.024.008A.027.027,0,0,1,12.041,4L14.3,8.519a1.51,1.51,0,0,0,1.129.83l5.062.736a.058.058,0,0,1,.026.006.033.033,0,0,0,.014,0l.01.009-.01.022-3.67,3.559a1.45,1.45,0,0,0-.431,1.339L17.312,20l-.02.019h-.021a.013.013,0,0,1-.012,0,.077.077,0,0,1-.029-.01h-.009l-4.5-2.35a1.509,1.509,0,0,0-.7-.171,1.539,1.539,0,0,0-.721.181L6.771,20.045H6.755a.045.045,0,0,1-.044-.034v-.02l.88-4.98a1.513,1.513,0,0,0-.43-1.33l-3.7-3.55a.065.065,0,0,1,.009-.041l.061-.02,5.03-.721a1.514,1.514,0,0,0,1.129-.83l2.261-4.53A.053.053,0,0,1,11.971,3.967Z" transform="translate(0)" fill="#fff" fill-rule="evenodd"/>
</svg>
