<svg id="Component_4_2" data-name="Component 4 – 2" xmlns="http://www.w3.org/2000/svg" width="24" height="24" viewBox="0 0 24 24">
  <rect id="Rectangle_23" data-name="Rectangle 23" width="24" height="24" fill="rgba(255,255,255,0)"/>
  <path id="Folder" d="M9.385,2H7.453C3.73,2,2,4.175,2,8.228v7.543C2,19.636,4.364,22,8.229,22h7.524c3.858,0,6.22-2.365,6.22-6.229l.027-4.8c0-4.048-1.689-6.029-5.47-6.029H13.8a1.488,1.488,0,0,1-1.185-.594l-.882-1.174A2.928,2.928,0,0,0,9.385,2ZM7.453,3.451H9.385a1.48,1.48,0,0,1,1.184.593l.883,1.175a2.938,2.938,0,0,0,2.342,1.173H16.53c2.925,0,4.021,1.285,4.021,4.574l-.027,4.8c0,3.066-1.713,4.781-4.771,4.781H8.229c-3.065,0-4.779-1.714-4.779-4.777V8.228C3.45,4.914,4.612,3.451,7.453,3.451Zm9.89,11.092a.725.725,0,0,0-.725-.726H7.347l-.1.007a.726.726,0,0,0,.1,1.445h9.271l.1-.007A.725.725,0,0,0,17.343,14.544Z" fill="#fff" fill-rule="evenodd"/>
</svg>
