<svg id="Component_5_2" data-name="Component 5 – 2" xmlns="http://www.w3.org/2000/svg" width="24" height="24" viewBox="0 0 24 24">
  <rect id="Rectangle_26" data-name="Rectangle 26" width="24" height="24" fill="rgba(255,255,255,0)"/>
  <path id="Home" d="M20.339,7.659A3,3,0,0,1,21.49,9.788l.01.2V18.1A3.918,3.918,0,0,1,17.78,22H15.79A1.831,1.831,0,0,1,14,20.309l-.01-.141V17.309a.635.635,0,0,0-.54-.621l-.09-.01H10.689a.635.635,0,0,0-.619.54l-.01.091v2.85a1.088,1.088,0,0,1-.02.179l-.01.021-.011.069A1.822,1.822,0,0,1,8.33,21.989L8.2,22H6.41A3.916,3.916,0,0,1,2.5,18.3V9.989A2.967,2.967,0,0,1,3.5,7.8l6.23-5.01a3.633,3.633,0,0,1,4.359-.12l.161.12Zm-.24,10.6.011-.16V10a1.62,1.62,0,0,0-.5-1.129l-.13-.111-6.1-4.88a2.256,2.256,0,0,0-2.64-.11l-.151.11-6.08,4.9A1.55,1.55,0,0,0,3.9,9.838L3.889,10v8.1A2.508,2.508,0,0,0,6.25,20.6H8.2a.431.431,0,0,0,.439-.359l.021-.18.01-.051v-2.7a2.022,2.022,0,0,1,1.87-2.021h2.82a2.023,2.023,0,0,1,2.02,1.871v3.009a.439.439,0,0,0,.35.43h1.859A2.5,2.5,0,0,0,20.1,18.258Z" transform="translate(0 0)" fill="#fff" fill-rule="evenodd"/>
</svg>
