<svg id="Component_6_2" data-name="Component 6 – 2" xmlns="http://www.w3.org/2000/svg" width="24" height="24" viewBox="0 0 24 24">
  <rect id="Rectangle_25" data-name="Rectangle 25" width="24" height="24" fill="rgba(255,255,255,0)"/>
  <path id="Heart" d="M6.483,2.815C2.812,4,1.174,8.006,2.4,11.83A12.427,12.427,0,0,0,5.38,16.576a34.717,34.717,0,0,0,6,4.673l.245.147a.732.732,0,0,0,.762-.006l.229-.142a34.694,34.694,0,0,0,6-4.665,12.42,12.42,0,0,0,2.976-4.737c1.235-3.837-.409-7.847-4.082-9.03l-.266-.079a6.571,6.571,0,0,0-4.982.619L12,3.514l-.263-.158A6.562,6.562,0,0,0,6.483,2.815Zm4.891,2.039.2.141a.732.732,0,0,0,.865-.009,5.11,5.11,0,0,1,4.628-.78c2.846.916,4.141,4.074,3.142,7.175a10.935,10.935,0,0,1-2.615,4.158l-.528.5a33.217,33.217,0,0,1-4.595,3.573L12,19.91l.143.09a33.221,33.221,0,0,1-5.738-4.465,10.942,10.942,0,0,1-2.614-4.168c-.994-3.088.3-6.244,3.139-7.16A5.1,5.1,0,0,1,11.375,4.854Zm4.5,1.629a.731.731,0,1,0-.445,1.392A1.98,1.98,0,0,1,16.788,9.6a.731.731,0,0,0,1.458-.122A3.441,3.441,0,0,0,15.87,6.484Z" fill="#111" fill-rule="evenodd"/>
</svg>
