<svg xmlns="http://www.w3.org/2000/svg" width="24" height="24" viewBox="0 0 24 24">
  <g id="Component_14_2" data-name="Component 14 – 2" opacity="0.6">
    <rect id="Rectangle_78" data-name="Rectangle 78" width="24" height="24" fill="rgba(255,255,255,0)"/>
    <g id="Layer_2" data-name="Layer 2" transform="translate(2.006 3.998)">
      <g id="Layer_1" data-name="Layer 1" transform="translate(-0.006 0.002)">
        <path id="Path_14" data-name="Path 14" d="M6.287,16A11.508,11.508,0,0,0,17.96,4.5V3.981a8.215,8.215,0,0,0,2.034-2.087,8.3,8.3,0,0,1-2.373.633A4.057,4.057,0,0,0,19.442.3a8.345,8.345,0,0,1-2.6.977,4.157,4.157,0,0,0-4.5-.99,4.042,4.042,0,0,0-2.6,3.75,3.911,3.911,0,0,0,.108.92A11.71,11.71,0,0,1,1.389.741,4,4,0,0,0,2.657,6.128,4.12,4.12,0,0,1,.8,5.621v.047A4.051,4.051,0,0,0,4.09,9.621a4.132,4.132,0,0,1-1.081.143,4.216,4.216,0,0,1-.773-.073A4.1,4.1,0,0,0,6.07,12.5,8.308,8.308,0,0,1,.986,14.228a8.644,8.644,0,0,1-.992-.057A11.744,11.744,0,0,0,6.287,16" transform="translate(0.006 -0.002)" fill="#222"/>
      </g>
    </g>
  </g>
</svg>
